<svg width="40" height="26" viewBox="0 0 40 26" fill="none" xmlns="http://www.w3.org/2000/svg">
<path d="M20.1304 21.7071C17.2032 15.0901 5.92362 13.5026 1.75696 18.4673C3.97429 24.5578 15.1166 26.9238 20.1304 21.7071Z" fill="#0A57C2" stroke="white" stroke-width="2"/>
<path d="M20.0976 21.7071C25.1115 26.9238 36.2537 24.5578 38.4711 18.4673C34.3044 13.5026 23.0248 15.0901 20.0976 21.7071Z" fill="#0A57C2" stroke="white" stroke-width="2"/>
<path d="M20.1208 21.9113C21.5183 14.812 13.1891 7.04188 6.92833 8.71888C5.25133 14.9797 13.0214 23.3088 20.1208 21.9113Z" fill="#0D6CF2" stroke="white" stroke-width="2"/>
<path d="M20.0513 21.9113C27.1507 23.3088 34.9208 14.9797 33.2438 8.71892C26.983 7.04192 18.6538 14.812 20.0513 21.9113Z" fill="#0D6CF2" stroke="white" stroke-width="2"/>
<path d="M20.0521 21.9218C26.6986 17.6166 26.2614 5.46099 20.0521 2C13.8428 5.46099 13.4055 17.6166 20.0521 21.9218Z" fill="#3D8AF5" stroke="white" stroke-width="2"/>
<circle cx="20.1312" cy="21.9218" r="2.16219" fill="#3D8AF5" stroke="white" stroke-width="2"/>
</svg>
